<?xml version="1.0" encoding="utf-8"?>
<!-- Generator: Adobe Illustrator 16.0.0, SVG Export Plug-In . SVG Version: 6.00 Build 0)  -->
<!DOCTYPE svg PUBLIC "-//W3C//DTD SVG 1.1//EN" "http://www.w3.org/Graphics/SVG/1.1/DTD/svg11.dtd">
<svg version="1.1" xmlns="http://www.w3.org/2000/svg" xmlns:xlink="http://www.w3.org/1999/xlink" x="0px" y="0px"
	 width="283.464px" height="283.464px" viewBox="0 0 283.464 283.464" enable-background="new 0 0 283.464 283.464"
	 xml:space="preserve">
<g id="Ebene_1" display="none">
	<path display="inline" d="M55.566,56.312c8.999-8.997-7.173-21.34,4.376-29.529C108.824-7.869,174.74-7.868,223.622,26.782
		c12.034,8.532-4.502,20.653,4.375,29.53c8.877,8.877,20.999-7.656,29.529,4.375c34.65,48.88,34.65,114.796,0.002,163.677
		c-8.529,12.035-20.654-4.498-29.531,4.378c-8.875,8.876,7.659,21-4.376,29.529c-48.882,34.65-114.796,34.649-163.679-0.001
		c-11.17-7.92,4.501-20.651-4.375-29.528c-8.876-8.877-21.609,6.794-29.529-4.377c-34.649-48.88-34.65-114.793-0.002-163.674
		C34.225,49.14,46.568,65.31,55.566,56.312z"/>
	<g display="inline">
		<polygon fill="#FFFFFF" points="225.296,121.348 216.863,136.84 208.431,121.348 195.063,121.348 195.063,122.159 
			210.867,147.833 210.867,163.821 222.86,163.821 222.86,147.768 238.664,122.159 238.664,121.348 		"/>
		<polygon fill="#FFFFFF" points="150.34,163.821 184.944,163.821 184.944,153.391 161.771,153.391 161.771,147.209 
			180.384,147.209 180.384,137.402 161.771,137.402 161.771,131.779 184.944,131.779 184.944,121.348 150.34,121.348 		"/>
		<path fill="#FFFFFF" d="M134.224,135.589c0-9.556-6.497-14.241-15.804-14.241H96.934v42.473h11.991v-14.863h3.311l11.994,14.863
			h12.368v-2.558l-11.493-13.244C130.539,146.145,134.224,141.523,134.224,135.589z M117.296,140.398h-8.371v-8.683h8.371
			c2.937,0,4.559,1.938,4.559,4.375C121.855,138.463,120.233,140.398,117.296,140.398z"/>
		<polygon fill="#FFFFFF" points="49.649,163.821 61.08,163.821 61.08,150.833 79.632,150.833 79.632,140.398 61.08,140.398 
			61.08,131.779 83.005,131.779 83.005,121.348 49.649,121.348 		"/>
	</g>
	<circle display="inline" fill="none" cx="141.791" cy="142.512" r="84.561"/>
	<text transform="matrix(0.5823 -0.813 0.813 0.5823 68.4209 99.7163)" display="inline"><tspan x="0" y="0" fill="#FFFFFF" font-family="'PlutoSansBold'" font-size="22.2636">C</tspan><tspan x="18.485" y="0.167" fill="#FFFFFF" font-family="'PlutoSansBold'" font-size="22.2636" rotate="13.317">H</tspan><tspan x="38.918" y="5.463" fill="#FFFFFF" font-family="'PlutoSansBold'" font-size="22.2636" rotate="26.81">A</tspan><tspan x="55.776" y="14.023" fill="#FFFFFF" font-family="'PlutoSansBold'" font-size="22.2636" rotate="41.278">M</tspan><tspan x="73.096" y="30.117" fill="#FFFFFF" font-family="'PlutoSansBold'" font-size="22.2636" rotate="55.387">P</tspan><tspan x="83.355" y="45.46" fill="#FFFFFF" font-family="'PlutoSansBold'" font-size="22.2636" rotate="68.013">A</tspan><tspan x="90.181" y="63.112" fill="#FFFFFF" font-family="'PlutoSansBold'" font-size="22.2636" rotate="81.107">G</tspan><tspan x="92.971" y="82.457" fill="#FFFFFF" font-family="'PlutoSansBold'" font-size="22.2636" rotate="94.818">N</tspan><tspan x="90.698" y="103.478" fill="#FFFFFF" font-family="'PlutoSansBold'" font-size="22.2636" rotate="107.962">E</tspan></text>
	<circle display="inline" fill="none" cx="141.791" cy="142.512" r="100.115"/>
	<text transform="matrix(0.8487 0.5289 -0.5289 0.8487 85.7197 225.5503)" display="inline"><tspan x="0" y="0" fill="#FFFFFF" font-family="'PlutoSansBold'" font-size="22.2636">I</tspan><tspan x="13.101" y="0.118" fill="#FFFFFF" font-family="'PlutoSansBold'" font-size="22.2636" rotate="-11.358">M</tspan><tspan x="39.263" y="-6.208" fill="#FFFFFF" font-family="'PlutoSansBold'" font-size="22.2636" rotate="-25.297">P</tspan><tspan x="58.369" y="-15.823" fill="#FFFFFF" font-family="'PlutoSansBold'" font-size="22.2636" rotate="-37.923">O</tspan><tspan x="76.345" y="-30.752" fill="#FFFFFF" font-family="'PlutoSansBold'" font-size="22.2636" rotate="-50.991">R</tspan><tspan x="89.588" y="-48.222" fill="#FFFFFF" font-family="'PlutoSansBold'" font-size="22.2636" rotate="-62.924">T</tspan></text>
</g>
<g id="Ebene_1_Kopie">
	<g>
		<path d="M132.807,229.504l-3.186-0.356l-0.515,4.603l3.186,0.355c1.284,0.144,2.38-0.652,2.534-2.023
			C134.99,230.623,134.09,229.648,132.807,229.504z"/>
		<path d="M147.34,47.708c0.035-1.47-0.946-2.361-2.237-2.393l-3.206-0.076l-0.11,4.63l3.205,0.077
			C146.284,49.977,147.307,49.088,147.34,47.708z"/>
		<path d="M117.247,130.92h-8.371v8.684h8.371c2.937,0,4.559-1.936,4.559-4.308C121.806,132.859,120.183,130.92,117.247,130.92z"/>
		<polygon points="102.565,60.544 97.894,56.287 98.566,62.603 		"/>
		<polygon points="164.315,48.385 160.699,53.606 165.072,54.66 		"/>
		<path d="M151.416,229.488c-2.367,0.258-3.896,2.261-3.632,4.696c0.261,2.39,2.188,4.039,4.556,3.781
			c2.435-0.265,3.895-2.283,3.634-4.674C155.708,230.857,153.851,229.222,151.416,229.488z"/>
		<path d="M257.476,59.893c-8.53-12.032-20.652,4.501-29.529-4.376c-8.877-8.876,7.659-20.997-4.375-29.529
			C174.69-8.663,108.774-8.663,59.893,25.989c-11.549,8.188,4.622,20.532-4.376,29.528c-8.999,8.999-21.342-7.171-29.531,4.379
			c-34.648,48.882-34.647,114.795,0.002,163.675c7.92,11.171,20.653-4.5,29.529,4.377c8.877,8.877-6.794,21.608,4.375,29.528
			c48.883,34.65,114.797,34.651,163.679,0.001c12.035-8.529-4.499-20.653,4.376-29.529c8.877-8.876,21.002,7.657,29.531-4.378
			C292.126,174.689,292.126,108.773,257.476,59.893z M225.537,87.302l-2.605,1.943l-5.125-6.871l-2.088,1.559l4.153,5.567
			l-2.517,1.877l-4.153-5.568l-2.32,1.731l5.126,6.87l-2.605,1.944l-7.269-9.744l12.136-9.053L225.537,87.302z M202.832,62.817
			l-0.083,11.952l5.925-7.032l2.86,2.409l-9.753,11.579l-2.486-2.094l0.083-11.952l-5.923,7.033l-2.861-2.41l9.753-11.579
			L202.832,62.817z M175.977,55.861c2.187-4.408,6.684-5.408,10.694-3.42c2.194,1.089,3.604,2.707,4.426,4.457l-2.793,1.771
			c-0.622-1.303-1.611-2.364-3.107-3.107c-2.175-1.078-4.532-0.482-5.769,2.011c-1.218,2.453-0.265,4.69,2.069,5.849
			c0.878,0.436,1.864,0.651,2.741,0.639l0.989-1.995l-3.252-1.612l1.267-2.554l6.423,3.186l-3.136,6.324
			c-1.761,0.394-4.71,0.024-6.785-1.004C175.736,64.416,173.81,60.229,175.977,55.861z M180.334,136.608v9.808h-18.613v6.182h23.173
			v10.43h-34.604v-42.473h34.604v10.431h-23.173v5.623H180.334z M163.038,44.276l4.286,1.032l2.019,16.059l-3.68-0.886l-0.345-2.945
			l-6.169-1.486l-1.669,2.461l-3.68-0.886L163.038,44.276z M114.397,45.667l6.65,4.976l3.858-7.354l3.147-0.713l3.343,14.763
			l-3.647,0.825l-2.045-9.03l-3.241,6.348l-0.629,0.143l-5.638-4.338l2.044,9.031l-3.647,0.825l-3.342-14.763L114.397,45.667z
			 M98.162,51.991l12.019,10.845l-3.366,1.732l-2.185-2.007l-5.643,2.904l0.343,2.955l-3.366,1.732l-1.723-16.145L98.162,51.991z
			 M61.459,82.2c1.424-1.965,3.286-3.09,5.336-3.528l1.175,2.969c-1.188,0.35-2.554,0.981-3.652,2.496
			c-1.503,2.072-0.927,4.58,1.019,5.991c1.947,1.411,4.509,1.178,6.012-0.896c1.097-1.514,1.274-3.008,1.236-4.246l3.187,0.193
			c0.221,2.085-0.271,4.204-1.694,6.169c-2.679,3.695-7.414,4.498-11,1.897C59.49,90.645,58.78,85.896,61.459,82.2z M82.956,130.985
			H61.03v8.619h18.553v10.435H61.03v12.988H49.6v-42.473h33.356V130.985z M83.886,79.943l-2.834,2.439l-9.875-11.471l2.834-2.44
			l3.819,4.438l5.415-4.663l-3.82-4.436l2.834-2.439l9.875,11.471L89.3,75.281l-3.935-4.572l-5.416,4.663L83.886,79.943z
			 M90.871,227.985l-3.184-1.962l7.941-12.886l3.184,1.962L90.871,227.985z M115.059,238.623l-3.508-1.299l3.215-8.687l-6.182,3.553
			l-0.605-0.224l-2.359-6.715l-3.215,8.688l-3.508-1.298l5.255-14.2l3.028,1.121l2.858,7.8l7.249-4.06l3.028,1.121L115.059,238.623z
			 M112.186,148.164h-3.311v14.863H96.884v-42.473h21.485c9.308,0,15.804,4.685,15.804,14.24c0,5.935-3.685,10.557-9.119,12.431
			l11.493,13.244v2.558H124.18L112.186,148.164z M138.673,232.535c-0.383,3.429-3.18,5.199-6.167,4.866l-3.761-0.421l-0.445,3.982
			l-3.717-0.416l1.682-15.044l7.478,0.836C136.73,226.672,139.101,228.708,138.673,232.535z M141.709,53.121l-0.096,4.007
			l-3.74-0.089l0.361-15.139l7.525,0.18c3.005,0.071,5.546,1.892,5.453,5.743c-0.081,3.451-2.713,5.459-5.719,5.388L141.709,53.121z
			 M152.72,241.462c-4.405,0.479-8.087-2.479-8.566-6.884c-0.484-4.449,2.475-8.131,6.879-8.61c4.449-0.484,8.131,2.475,8.615,6.924
			C160.127,237.296,157.168,240.978,152.72,241.462z M178.179,235.066l-6.121-3.545l-1.43,0.5l1.771,5.065l-3.531,1.234
			l-4.996-14.294l6.79-2.373c3.321-1.16,6.036-0.41,7.16,2.805c0.742,2.124-0.108,4.213-1.886,5.472l5.771,3.148l0.235,0.673
			L178.179,235.066z M191.738,228.495l-6.116-10.168l-3.988,2.398l-1.687-2.805l11.065-6.656l1.687,2.805l-3.873,2.329l6.116,10.169
			L191.738,228.495z M238.614,121.365l-15.804,25.609v16.053h-11.993v-15.988l-15.804-25.674v-0.811h13.368l8.432,15.491
			l8.434-15.491h13.367V121.365z"/>
		<path d="M171.671,224.745l-3.195,1.117l1.234,3.531l3.194-1.116c1.156-0.404,1.663-1.384,1.296-2.435
			C173.819,224.75,172.827,224.341,171.671,224.745z"/>
	</g>
</g>
</svg>
